HIERARCHY
ROOT Hips
{
  OFFSET 179.979 97.3047 303.174
  CHANNELS 6 Xposition Yposition Zposition Zrotation Xrotation Yrotation
  JOINT Spine
  {
    OFFSET 0.000859786 9.92346 -1.22733
    CHANNELS 3 Zrotation Xrotation Yrotation
    JOINT Spine1
    {
      OFFSET 0 11.732 0
      CHANNELS 3 Zrotation Xrotation Yrotation
      JOINT Spine2
      {
        OFFSET 0 13.4588 0
        CHANNELS 3 Zrotation Xrotation Yrotation
        JOINT Neck
        {
          OFFSET 2.54812e-05 15.0278 0.877907
          CHANNELS 3 Zrotation Xrotation Yrotation
          JOINT Head
          {
            OFFSET 0 10.3218 3.14243
            CHANNELS 3 Zrotation Xrotation Yrotation
            End Site
            {
              OFFSET 0 0 0
            }
          }
        }
        JOINT LeftShoulder
        {
          OFFSET 6.10582 9.10629 0.757062
          CHANNELS 3 Zrotation Xrotation Yrotation
          JOINT LeftArm
          {
            OFFSET 0 12.9223 0
            CHANNELS 3 Zrotation Xrotation Yrotation
            JOINT LeftForeArm
            {
              OFFSET 0 27.4047 0
              CHANNELS 3 Zrotation Xrotation Yrotation
              JOINT LeftHand
              {
                OFFSET -1.28204e-05 27.6145 0
                CHANNELS 3 Zrotation Xrotation Yrotation
                End Site
                {
                  OFFSET 0 0 0
                }
              }
            }
          }
        }
        JOINT RightShoulder
        {
          OFFSET -6.1057 9.10638 0.757076
          CHANNELS 3 Zrotation Xrotation Yrotation
          JOINT RightArm
          {
            OFFSET 0 12.9223 0
            CHANNELS 3 Zrotation Xrotation Yrotation
            JOINT RightForeArm
            {
              OFFSET 0 27.4047 0
              CHANNELS 3 Zrotation Xrotation Yrotation
              JOINT RightHand
              {
                OFFSET 1.28428e-05 27.6145 1.44975e-05
                CHANNELS 3 Zrotation Xrotation Yrotation
                End Site
                {
                  OFFSET 0 0 0
                }
              }
            }
          }
        }
      }
    }
  }
  JOINT LeftUpLeg
  {
    OFFSET 9.12387 -6.65719 -0.0554031
    CHANNELS 3 Zrotation Xrotation Yrotation
    JOINT LeftLeg
    {
      OFFSET 0 40.5994 0
      CHANNELS 3 Zrotation Xrotation Yrotation
      JOINT LeftFoot
      {
        OFFSET 0 42.099 0
        CHANNELS 3 Zrotation Xrotation Yrotation
        JOINT LeftToeBase
        {
          OFFSET 0 15.7216 0
          CHANNELS 3 Zrotation Xrotation Yrotation
          End Site
          {
            OFFSET 0 0 0
          }
        }
      }
    }
  }
  JOINT RightUpLeg
  {
    OFFSET -9.12503 -6.6556 -0.0553527
    CHANNELS 3 Zrotation Xrotation Yrotation
    JOINT RightLeg
    {
      OFFSET 0 40.5994 0
      CHANNELS 3 Zrotation Xrotation Yrotation
      JOINT RightFoot
      {
        OFFSET 0 42.099 0
        CHANNELS 3 Zrotation Xrotation Yrotation
        JOINT RightToeBase
        {
          OFFSET 0 15.7216 0
          CHANNELS 3 Zrotation Xrotation Yrotation
          End Site
          {
            OFFSET 0 0 0
          }
        }
      }
    }
  }
}
MOTION
Frames:	16
Frame Time:	0.0333333
-250.202 92.8448 248.398 -9.96412 -8.9322 -148.843 0.212969 2.96777 -3.87286 1.15648 19.8456 -8.02211 2.18618 26.3722 -8.42562 3.46347 -12.2164 -6.40222 -1.58794 -29.7833 -5.59238 -85.0738 -4.57547 90.6388 -8.24023 12.7323 -11.7607 52.0289 -21.2886 -0.734126 -12.3658 -3.2595 0.957381 95.2604 -12.0836 -90.6989 4.46808 34.0884 47.8236 -78.492 -3.70993 0.507521 -1.9771 -25.0136 -24.5681 -175.651 43.2896 -19.1126 158.369 -74.5464 162.159 -18.1577 69.5513 7.07842 -0.965263 26.367 -3.60229 179.375 40.4053 0.972632 4.1167 -45.1601 17.9687 -36.7362 63.5338 24.488 0.963563 26.3682 3.55536 
-248.335 94.4784 251.021 -8.20279 -9.44759 -149.204 0.114174 3.02326 -3.04479 0.800996 19.9747 -6.28557 1.61025 26.5274 -6.60445 2.11365 -12.8294 -7.28992 1.24883 -29.3671 -6.68735 -85.8895 -4.93865 90.7142 -6.312 12.985 -11.5154 52.2239 -21.9362 -0.761676 -13.2417 -0.350599 3.38325 95.3389 -12.3824 -90.6578 4.21833 34.2996 47.0398 -77.5391 -4.66079 0.544761 -3.23486 -27.2086 -24.9977 -177.365 42.3388 -18.2149 104.408 -84.2078 108.123 -24.7724 67.643 7.53995 -0.965263 26.367 -3.60229 -179.374 39.3517 2.47181 3.26281 -35.5346 16.6878 -31.0696 56.0558 16.0108 0.963563 26.3682 3.55536 
-246.675 95.3333 254.015 -5.02972 -10.4604 -153.856 -0.276213 2.62391 -1.61164 -0.294909 19.2013 -3.17526 0.112757 25.7852 -3.33085 1.64548 -11.8757 -7.67756 5.08527 -29.197 -7.04817 -87.3332 -6.2653 90.7873 -4.72229 13.9838 -15.4103 53.4416 -21.7672 -0.729839 -12.6861 -1.07676 7.94896 94.6555 -11.5523 -90.7553 0.689059 34.6844 48.2771 -76.1274 -6.39602 0.611206 2.16909 -30.2307 -13.938 -176.558 41.9871 -20.613 28.0887 -76.0427 32.2196 -27.8925 65.0165 8.01499 -0.965263 26.367 -3.60229 -175.924 41.5518 0.704721 4.39499 -29.5293 14.6769 -21.1141 48.7505 9.99542 0.963563 26.3682 3.55536 
-245.842 94.8094 256.366 -3.65519 -11.6722 -160.571 -0.977901 2.07088 -0.330144 -1.98529 18.0914 -0.264391 -1.94991 24.6858 -0.277391 -0.963691 -11.4424 -7.72422 10.9731 -29.1078 -7.54254 -89.8431 -8.38059 90.8526 -3.02429 17.2244 -22.9178 56.1667 -22.2633 -0.697731 -10.7449 -6.17777 7.56578 91.8563 -9.22251 -90.9252 -3.90093 36.3173 51.8266 -74.7367 -7.72632 0.66354 7.72754 -29.1949 -7.81555 -177.671 39.8107 -20.5934 16.0853 -64.7225 22.4903 -31.2246 62.8576 11.3557 -0.965263 26.367 -3.60229 -174.624 45.3882 -2.34519 6.7536 -32.2491 10.9709 -4.43181 51.3592 9.05518 0.963563 26.3682 3.55536 
-245.168 92.7539 257.717 -4.51727 -10.5746 -167.334 -1.91828 1.83742 0.596302 -4.08782 17.5813 2.00508 -4.33882 24.1717 2.09375 -2.85423 -12.4722 -8.15065 14.9305 -25.9384 -8.65656 -93.7602 -11.5402 90.7143 0.504925 20.5763 -33.7334 61.5254 -20.4752 -0.492144 -9.75715 -16.6161 0.964929 90.3175 -5.09045 -91.2273 -6.43931 35.4312 53.4007 -73.6621 -7.93383 0.677659 7.37878 -26.351 -13.5607 178.958 33.5032 -19.4311 9.04886 -59.5977 15.1566 -12.0301 73.3644 15.496 -0.965263 26.367 -3.60229 -175.225 48.4851 -1.762 9.57032 -42.5793 9.00789 11.5807 59.529 6.1657 0.963563 26.3682 3.55536 
-244.068 90.0126 258.597 -4.41809 -7.46695 -171.092 -2.33623 1.64125 1.05125 -5.01821 17.1537 3.09091 -5.40477 23.7383 3.22487 -2.37334 -11.5925 -9.50492 15.7935 -21.8394 -10.4354 -97.3496 -13.5495 90.5045 4.27388 25.9186 -44.7206 68.4571 -15.6074 -0.110279 -10.6099 -27.9027 -10.7823 89.9778 -3.65485 -91.3223 -8.87192 33.4894 46.9575 -74.8901 -6.55179 0.623868 6.27416 -23.3792 -21.6967 -177.849 25.0614 -27.3752 6.03989 -57.0153 10.7319 -155.674 85.5797 161.773 -0.965263 26.367 -3.60229 -174.221 50.9665 1.76351 6.95147 -56.8404 7.83595 16.6602 69.4757 3.92955 0.963563 26.3682 3.55536 
-241.885 89.0113 259.266 -5.14894 -5.03272 -166.179 -2.62806 1.55309 -0.123668 -5.43718 17.0219 0.814851 -5.53726 23.6158 0.848259 0.805991 -6.82161 -11.48 16.2533 -20.493 -11.8787 -97.1065 -12.4345 90.6796 4.87445 36.5265 -51.6755 75.2049 -9.83625 0.292546 -11.6648 -33.3619 -12.9836 90.941 -4.31836 -91.3785 -10.8072 37.8247 40.7917 -81.0659 -2.37718 0.443722 2.29099 -15.3267 -33.4312 -178.167 21.7954 -31.062 12.5923 -54.9379 17.1318 -162.108 80.0843 167.145 -0.965263 26.367 -3.60229 178.017 52.5398 8.85988 4.77182 -67.988 5.70055 12.5893 73.5682 1.96983 0.963563 26.3682 3.55536 
-239.393 89.5593 259.809 -3.33295 -3.15593 -162.368 -2.59275 1.58282 -0.770621 -5.26428 17.1123 -0.513422 -5.19726 23.7066 -0.538136 3.84497 -5.79065 -14.4822 15.7411 -19.2208 -14.1218 -97.7346 -10.5515 91.0055 4.73135 45.9108 -51.2747 77.5794 -7.28552 0.446712 -8.22515 -37.1413 -10.0437 94.6977 -5.831 -91.5393 -11.6286 44.7275 34.3864 -89.012 0.137931 0.299372 -2.8394 -18.0005 -39.9379 -176.075 22.4137 -22.4806 8.34832 -55.8513 12.0903 -164.689 81.8705 168.011 -0.965263 26.367 -3.60229 177.414 53.7086 6.69235 5.55649 -76.0888 6.82025 7.92919 72.4946 3.14761 0.963563 26.3682 3.55536 
-236.881 92.0529 259.676 0.747722 -0.528514 -162.913 -2.13681 1.57923 -0.805293 -4.31236 17.1124 -0.769304 -4.21332 23.7063 -0.804859 4.69093 -3.55975 -15.3 16.3291 -18.7045 -14.7743 -100.443 -10.6721 91.0954 2.85308 51.928 -39.2584 75.4787 -9.37979 0.314932 -12.1747 -38.948 -14.7857 98.4615 -5.58238 -91.8988 -10.4138 53.5478 26.5394 -92.404 0.457783 0.255177 -11.5033 -22.254 -48.5239 -169.887 19.413 -24.83 10.2015 -50.8409 14.2216 -137.792 84.9278 138.941 -0.965263 26.367 -3.60229 -173.731 53.2013 -2.90414 8.69166 -82.0134 10.1551 3.31878 68.11 3.79659 0.963563 26.3682 3.55536 
-234.186 95.9449 259.962 6.06548 0.831759 -161.892 -1.44824 1.57256 -1.39192 -2.79126 17.117 -2.24295 -2.50709 23.7062 -2.34257 6.24792 -3.39655 -14.7068 16.9453 -17.9128 -13.8371 -102.928 -11.7026 90.9781 0.970979 57.2524 -29.2659 74.0356 -10.8528 0.221846 -16.1532 -38.4043 -21.5532 100.925 -6.60004 -91.9195 -10.2954 61.9994 21.0548 -90.118 -0.0866929 0.295466 -13.9529 -23.6492 -49.1617 -164.989 17.9343 -19.6879 6.49856 -43.2242 8.22072 -23.8215 84.6583 23.5846 -0.965263 26.367 -3.60229 -166.55 53.5023 -5.63058 3.8843 -87.0146 7.9946 -4.29423 66.3005 8.10612 0.963563 26.3682 3.55536 
-231.6 99.5897 261.036 10.7906 0.0999715 -158.786 -0.867102 1.61372 -2.13396 -1.4677 17.2004 -3.98907 -0.964082 23.7782 -4.16546 10.8227 -7.90717 -14.9507 13.8372 -16.8457 -12.8337 -103.343 -10.4303 91.2662 0.203661 62.64 -26.9489 75.5485 -10.2532 0.286524 -11.493 -42.8894 -14.9655 101.914 -6.80048 -91.9571 -5.22573 63.9678 13.0116 -85.2802 -0.879822 0.365375 -14.1525 -28.6255 -44.6769 -162.694 22.8676 -16.6216 6.9349 -39.7523 3.02243 1.92978 71.4411 -3.38642 -0.965263 26.367 -3.60229 -163.972 56.9507 -1.76195 -143.472 -87.1105 -135.596 -13.3451 67.0152 15.0387 0.963563 26.3682 3.55536 
-229.323 102.003 262.46 14.2252 -0.742245 -155.9 -0.26365 1.82452 -2.10491 -0.211672 17.6022 -4.17829 0.317157 24.1783 -4.36653 11.9172 -13.8738 -15.9194 13.3897 -15.9572 -13.9594 -101.828 -8.76356 91.5358 9.90167 67.1147 -37.1572 78.3861 -8.11285 0.443669 -3.32727 -45.5218 -4.46821 102.081 -7.84718 -91.7579 1.42344 61.5614 7.01753 -80.9132 -3.07851 0.470107 -16.1068 -29.5035 -45.4187 -162.51 31.0858 -17.2452 10.6572 -44.6211 1.47679 4.28536 62.865 -9.20569 -0.965263 26.367 -3.60229 -162.996 60.9452 1.41669 -161.606 -81.5392 -151.464 -18.1014 65.3174 18.0064 0.963563 26.3682 3.55536 
-227.062 103.192 263.921 15.5517 -0.294032 -154.553 0.0849208 2.26016 -1.73453 0.469006 18.4626 -3.575 0.924808 25.0436 -3.74329 9.11222 -16.0475 -17.3385 14.3983 -16.0781 -16.1003 -99.9631 -7.69778 91.6222 21.2103 68.675 -51.4148 82.6273 -3.47114 0.723856 0.955656 -44.9834 1.08719 101.488 -8.64964 -91.5591 5.57514 57.2768 5.83107 -75.8096 -6.41249 0.613313 -13.798 -31.1458 -42.6345 -162.17 36.0343 -16.8173 11.1078 -48.2261 12.5173 -13.0916 59.6907 5.12603 -0.965263 26.367 -3.60229 -162.108 62.7291 2.29912 -167.454 -76.4028 -157.116 -15.7584 61.0494 15.5282 0.963563 26.3682 3.55536 
-225.334 102.347 264.944 18.6207 1.92489 -155.152 0.836406 2.63267 -1.14127 1.94985 19.1909 -2.69204 2.29532 25.7778 -2.82296 7.58344 -15.8601 -17.9769 14.3858 -17.6933 -16.845 -99.6465 -7.39504 91.6553 27.1034 66.0644 -60.8171 86.735 -0.503517 0.946068 4.16558 -44.1161 6.26692 99.0509 -8.84233 -91.3796 7.00027 54.1164 7.95904 -68.15 -11.2299 0.817107 -7.56234 -33.4343 -33.8905 -160.443 34.6677 -12.688 7.83516 -42.3209 15.8244 -39.1655 59.1813 11.9327 -0.965263 26.367 -3.60229 -157.58 62.3627 1.51965 -170.872 -71.3607 -161.478 -12.7398 58.765 13.2038 0.963563 26.3682 3.55536 
-223.594 101.759 265.759 18.8971 2.59448 -155.631 0.940849 2.83026 -1.0237 2.15487 19.5851 -2.50293 2.47718 26.1729 -2.62696 7.36293 -15.2187 -18.0423 14.2781 -18.4212 -16.8561 -98.4893 -7.43132 91.5676 30.1231 61.9737 -67.4355 89.0844 0.172474 1.04355 6.26057 -43.0056 9.19333 96.8896 -8.39775 -91.3245 4.68493 50.2661 13.9808 -58.0148 -15.7773 1.00907 0.607902 -31.2826 -22.6632 -164.292 33.4498 -7.56095 5.41607 -41.0181 13.4766 -28.3459 55.3916 9.26168 -0.965263 26.367 -3.60229 -157.487 61.7671 1.71254 -170.775 -68.1379 -161.315 -9.16122 55.6705 12.5656 0.963563 26.3682 3.55536 
-221.76 99.247 266.451 20.301 5.10496 -156.848 1.37743 3.03438 -1.00537 3.07528 19.9793 -2.66326 3.41919 26.5663 -2.79753 6.81275 -13.4589 -17.7403 13.978 -18.7509 -16.5882 -95.7808 -7.17582 91.4163 26.8227 58.1082 -68.8321 89.4887 0.302702 1.06085 2.76527 -41.3225 6.81487 95.343 -8.24018 -91.2521 3.2668 42.983 16.3218 -49.2425 -18.2065 1.09894 6.25067 -28.4996 -17.0909 -164.547 30.4406 -10.1683 7.16321 -44.4662 16.6358 -5.33344 68.5071 19.7047 -0.965263 26.367 -3.60229 -155.91 61.7246 1.92332 -170.54 -64.5309 -159.621 -9.39153 50.855 12.7724 0.963563 26.3682 3.55536 
